<svg id="Layer_1" data-name="Layer 1" xmlns="http://www.w3.org/2000/svg" viewBox="0 0 720 83.15"><defs><style>.cls-1{fill:#3d728b;}.cls-2{fill:#2d5766;}.cls-3,.cls-7{fill:#6497c2;}.cls-4{fill:#87a4d8;}.cls-5{fill:#52719e;}.cls-6{fill:#fff6fa;}.cls-7{opacity:0.6;}.cls-8{fill:#3bb9ff;}.cls-9{fill:#9ac5e2;}.cls-10{fill:#2b82b2;}.cls-11{fill:#cae0ed;}.cls-12{fill:#96c8ea;}.cls-13{fill:#4d8ea0;}</style></defs><rect class="cls-1" y="0.01" width="719.99" height="83.13"/><polygon class="cls-2" points="206.84 0.01 206.84 28.49 237.21 28.49 237.21 36.43 257.92 36.43 257.92 61.01 289.89 61.01 289.89 73.14 309.12 73.14 309.12 0.01 206.84 0.01"/><polygon class="cls-2" points="417.18 83.14 451.05 83.14 451.05 58.46 460.5 58.46 460.5 41.63 489.73 41.63 489.73 15.64 504.16 15.64 504.16 0.01 417.18 0.01 417.18 83.14"/><polygon class="cls-2" points="140.13 83.14 140.13 59.89 131.92 59.89 131.92 51.95 154.71 51.95 191.98 51.95 191.98 67.81 231.57 67.81 231.57 83.14 140.13 83.14"/><polygon class="cls-2" points="31.3 0 31.3 13.62 44.96 33.06 121.41 33.06 121.41 0 31.3 0"/><rect class="cls-3" x="48.53" width="7.95" height="37.59"/><rect class="cls-3" x="63.56" y="22.55" width="7.95" height="22.12" transform="translate(101.15 -33.92) rotate(90)"/><circle class="cls-4" cx="78.59" cy="33.61" r="9.69"/><circle class="cls-5" cx="78.59" cy="33.61" r="8.12"/><circle class="cls-6" cx="78.59" cy="33.61" r="4.94"/><rect class="cls-3" x="119.09" y="59.89" width="4.64" height="23.26" transform="translate(242.83 143.04) rotate(180)"/><rect class="cls-3" x="110.41" y="56.05" width="4.85" height="12.52" transform="translate(50.52 175.15) rotate(-90)"/><circle class="cls-4" cx="106.57" cy="62.32" r="6.96"/><circle class="cls-5" cx="106.57" cy="62.32" r="5.83"/><circle class="cls-6" cx="106.57" cy="62.32" r="3.55"/><rect class="cls-3" x="131.98" width="4.64" height="27.23"/><rect class="cls-3" x="177.46" width="4.64" height="18.79"/><rect class="cls-2" x="209.38" y="28.49" width="3.49" height="12.64"/><rect class="cls-2" x="240.56" y="34.81" width="3.49" height="15.94"/><rect class="cls-2" x="234.92" y="49.47" width="3.49" height="15.94"/><rect class="cls-2" x="215.6" y="35.35" width="3.05" height="8.52" transform="translate(256.74 -177.52) rotate(90)"/><rect class="cls-2" x="236.22" y="46.42" width="3.05" height="5.64" transform="translate(286.98 -188.51) rotate(90)"/><rect class="cls-2" x="241.15" y="59.63" width="3.05" height="8.52" transform="translate(306.57 -178.78) rotate(90)"/><rect class="cls-3" x="252.39" y="9.4" width="4.64" height="18.79" transform="translate(203.37 -231.39) rotate(74.18)"/><rect class="cls-3" x="261.38" y="31.02" width="4.64" height="18.79" transform="translate(142.92 -197.45) rotate(54.37)"/><rect class="cls-3" x="281.24" y="50.43" width="4.64" height="18.79" transform="translate(108.61 -171.21) rotate(40.95)"/><rect class="cls-3" x="130.76" y="64.36" width="2.32" height="18.79"/><rect class="cls-3" x="166.16" y="18.79" width="4.64" height="18.79"/><rect class="cls-3" x="169.49" y="10.83" width="4.64" height="11.3" transform="translate(188.28 -155.33) rotate(90)"/><rect class="cls-3" x="147.57" y="49.68" width="2.76" height="32.18" transform="translate(214.71 -83.18) rotate(90)"/><circle class="cls-4" cx="134.3" cy="27.23" r="6.96"/><circle class="cls-5" cx="134.3" cy="27.23" r="5.83"/><circle class="cls-6" cx="134.3" cy="27.23" r="3.55"/><circle class="cls-4" cx="168.48" cy="37.59" r="6.96"/><circle class="cls-5" cx="168.48" cy="37.59" r="5.83"/><circle class="cls-6" cx="168.48" cy="37.59" r="3.55"/><circle class="cls-4" cx="221.39" cy="39.69" r="3.84"/><circle class="cls-5" cx="221.39" cy="39.69" r="3.22"/><circle class="cls-6" cx="221.39" cy="39.69" r="1.96"/><circle class="cls-4" cx="246.93" cy="63.9" r="3.84"/><circle class="cls-5" cx="246.93" cy="63.9" r="3.22"/><circle class="cls-6" cx="246.93" cy="63.9" r="1.96"/><rect class="cls-2" x="479.67" y="40.89" width="3.49" height="12.64"/><rect class="cls-2" x="492.38" y="20.22" width="3.49" height="15.94" transform="translate(465.93 522.32) rotate(-90)"/><rect class="cls-2" x="507.04" y="25.86" width="3.49" height="15.94" transform="translate(474.95 542.61) rotate(-90)"/><rect class="cls-2" x="485.89" y="47.74" width="3.05" height="8.52" transform="translate(539.42 -435.41) rotate(90)"/><rect class="cls-2" x="499.05" y="29.94" width="3.05" height="5.64"/><rect class="cls-2" x="513.71" y="23.56" width="3.05" height="8.52"/><circle class="cls-4" cx="491.68" cy="52.08" r="3.84"/><circle class="cls-5" cx="491.68" cy="52.08" r="3.22"/><circle class="cls-6" cx="491.68" cy="52.08" r="1.96"/><circle class="cls-4" cx="515.23" cy="23.56" r="3.84"/><circle class="cls-5" cx="515.23" cy="23.56" r="3.22"/><circle class="cls-6" cx="515.23" cy="23.56" r="1.96"/><circle class="cls-4" cx="245.79" cy="21.32" r="6.96"/><circle class="cls-5" cx="245.79" cy="21.32" r="5.83"/><circle class="cls-6" cx="245.79" cy="21.32" r="3.55"/><circle class="cls-4" cx="253.71" cy="47.58" r="6.96"/><circle class="cls-5" cx="253.71" cy="47.58" r="5.83"/><circle class="cls-6" cx="253.71" cy="47.58" r="3.55"/><circle class="cls-4" cx="276.5" cy="67.96" r="6.96"/><circle class="cls-5" cx="276.5" cy="67.96" r="5.83"/><circle class="cls-6" cx="276.5" cy="67.96" r="3.55"/><rect class="cls-3" x="434.21" y="50.83" width="4.64" height="18.79" transform="translate(48.8 269.63) rotate(-36.23)"/><rect class="cls-3" x="451.35" y="34.86" width="4.64" height="18.79" transform="translate(163.55 395.83) rotate(-56.04)"/><rect class="cls-3" x="462.61" y="9.48" width="4.64" height="18.79" transform="translate(284.12 447.62) rotate(-69.46)"/><circle class="cls-4" cx="442.01" cy="67.7" r="6.96"/><circle class="cls-5" cx="442.01" cy="67.7" r="5.83"/><circle class="cls-6" cx="442.01" cy="67.7" r="3.55"/><circle class="cls-4" cx="463.86" cy="51.12" r="6.96"/><circle class="cls-5" cx="463.86" cy="51.12" r="5.83"/><circle class="cls-6" cx="463.86" cy="51.12" r="3.55"/><circle class="cls-4" cx="475.02" cy="22.66" r="6.96"/><circle class="cls-5" cx="475.02" cy="22.66" r="5.83"/><circle class="cls-6" cx="475.02" cy="22.66" r="3.55"/><circle class="cls-4" cx="165.25" cy="66.67" r="4.92"/><circle class="cls-5" cx="165.25" cy="66.67" r="4.12"/><circle class="cls-6" cx="165.25" cy="66.67" r="2.51"/><rect class="cls-7" x="107.64" width="2.38" height="13.97"/><circle class="cls-4" cx="108.83" cy="13.86" r="3.57"/><circle class="cls-5" cx="108.83" cy="13.86" r="2.99"/><circle class="cls-6" cx="108.83" cy="13.86" r="1.82"/><rect class="cls-3" x="67.71" y="64.24" width="2.38" height="18.91" transform="translate(137.8 147.39) rotate(180)"/><circle class="cls-4" cx="68.9" cy="64.24" r="3.57"/><circle class="cls-5" cx="68.9" cy="64.24" r="2.99"/><circle class="cls-6" cx="68.9" cy="64.24" r="1.82"/><path class="cls-8" d="M11.43,35c0,.12-.14,0-.16,0a1.27,1.27,0,0,1-.13-.19c-.08-.12-.14-.26-.21-.39a8.33,8.33,0,0,1-.34-.82,16,16,0,0,1-.54-1.7,12.5,12.5,0,0,1-.39-3.57,4.75,4.75,0,0,1,1.42-3.4,4.84,4.84,0,0,1,3.58-1,5.64,5.64,0,0,1,1.85.37,2.38,2.38,0,0,1,1.41,1.43,3.85,3.85,0,0,1-1.05,3.57,4.63,4.63,0,0,1-1.49,1.14,2.41,2.41,0,0,1-1.88.15c-1.26-.57-1.57-1.94-1.73-3,.32,1.09.81,2.35,1.86,2.67a2.81,2.81,0,0,0,2.75-1.31A3.33,3.33,0,0,0,17.23,26c-.32-.94-1.51-1.18-2.62-1.27a4.21,4.21,0,0,0-3.07.75,4.54,4.54,0,0,0-1.3,2.92,12.54,12.54,0,0,0,.17,3.45,14.48,14.48,0,0,0,.37,1.71c.07.28.16.56.26.84a3.39,3.39,0,0,0,.15.41,1.74,1.74,0,0,0,.1.19S11.4,35.12,11.43,35Z"/><path class="cls-8" d="M19,37.38c.09-.08.1.09.08.14a2.07,2.07,0,0,1,0,.22c0,.14-.08.28-.13.42s-.21.56-.33.83a17,17,0,0,1-.83,1.58,12.25,12.25,0,0,1-2.25,2.8A4.76,4.76,0,0,1,12,44.77a4.83,4.83,0,0,1-3.23-1.83,5.8,5.8,0,0,1-1-1.57,2.38,2.38,0,0,1,0-2,3.86,3.86,0,0,1,3.27-1.77,4.65,4.65,0,0,1,1.85.24,2.45,2.45,0,0,1,1.45,1.23c.48,1.29-.27,2.48-.94,3.38.54-1,1.09-2.23.57-3.2a2.81,2.81,0,0,0-2.88-1,3.33,3.33,0,0,0-2.66,1.46c-.44.9.23,1.9,1,2.76a4.15,4.15,0,0,0,2.7,1.63,4.47,4.47,0,0,0,3-1.14,12.83,12.83,0,0,0,2.32-2.55c.34-.48.66-1,1-1.47.14-.26.28-.52.41-.78l.18-.4a1.66,1.66,0,0,0,.06-.21S19,37.32,19,37.38Z"/><path class="cls-8" d="M6.69,53.72c-.12,0,0-.13,0-.16l.18-.12.39-.21c.27-.13.55-.24.82-.35a17.55,17.55,0,0,1,1.7-.53A12.2,12.2,0,0,1,13.39,52a4.71,4.71,0,0,1,3.41,1.42,4.88,4.88,0,0,1,1,3.58,5.55,5.55,0,0,1-.38,1.84A2.37,2.37,0,0,1,16,60.22a3.87,3.87,0,0,1-3.57-1,5.06,5.06,0,0,1-1.14-1.49,2.47,2.47,0,0,1-.15-1.89c.58-1.25,1.94-1.56,3.06-1.72-1.09.31-2.35.8-2.68,1.86a2.85,2.85,0,0,0,1.32,2.75,3.34,3.34,0,0,0,2.92.85c.94-.33,1.18-1.51,1.27-2.62a4.12,4.12,0,0,0-.75-3.07,4.4,4.4,0,0,0-2.92-1.3,12.45,12.45,0,0,0-3.44.17,17,17,0,0,0-1.72.36l-.83.26-.41.16a1.24,1.24,0,0,0-.2.1S6.58,53.7,6.69,53.72Z"/><polygon class="cls-9" points="0 26.26 27.49 27.96 0 29.65 0 26.26"/><polygon class="cls-9" points="0 39.88 27.49 41.58 0 43.27 0 39.88"/><polygon class="cls-9" points="0 54.45 27.49 56.14 0 57.84 0 54.45"/><path class="cls-2" d="M44.38,83.15l-.14-5.26-.12-5.27.26.27-7,.1h-.37v-.38C37,70.8,37,69,37,67.16v-.42h.43l10.68,0c3.56,0,7.12,0,10.69,0l-.45.45,0-4.84.42.41-4.31,0h-.38v-.36l.09-5.83.28.28c-2.38,0-4.75-.09-7.12-.15h-.14v-.13l.14-4.55.13,4.55-.13-.13c2.37-.06,4.74-.13,7.12-.15h.28v.29l.09,5.83-.37-.38,4.31,0h.41v.43l0,4.84v.44H58.8c-3.57,0-7.13.06-10.69,0l-10.68,0,.42-.42c0,1.82,0,3.64-.05,5.46l-.37-.36,7,.1h.27v.26l-.12,5.27Z"/><path class="cls-2" d="M89,83.15c-.25-1.8-.38-3.59-.5-5.39l0-.47.53,0c1,0,2-.11,3-.13l-.64.63c-.05-1.55-.08-3.09-.09-4.64l.73.72c-.87,0-1.74,0-2.61,0s-1.74,0-2.61,0l-.67,0v-.63c0-1.66.13-3.32.25-5l.41.41c-1.35-.1-2.71-.22-4.06-.41,1.35-.18,2.71-.3,4.06-.4l.37,0,0,.43c.13,1.66.21,3.32.25,5l-.65-.65c.87,0,1.74-.06,2.61-.06s1.74,0,2.61,0h.72v.71c0,1.55,0,3.09-.09,4.64l0,.65-.61,0c-1,0-2-.09-3-.14l.49-.49C89.32,79.56,89.19,81.35,89,83.15Z"/><path class="cls-2" d="M0,3.71c3-.17,5.93-.27,8.9-.34s5.94-.09,8.9-.13h.47v.47c0,1.38,0,2.76,0,4.14v.48H17.8l-6.09-.05c-2,0-4.06-.11-6.09-.16l.26-.26c0,1-.08,1.92-.11,2.88s-.09,1.93-.15,2.89c-.06-1-.11-1.92-.15-2.89s-.09-1.92-.11-2.88V7.6h.27c2,0,4.06-.12,6.09-.15l6.09-.06-.46.47c0-1.38,0-2.76,0-4.14l.46.47c-3,0-5.93,0-8.9-.12S3,3.89,0,3.71Z"/><path class="cls-2" d="M718.77,10.13c-3,.18-5.94.28-8.9.34s-5.94.09-8.91.13h-.46v-.47c0-1.38,0-2.76,0-4.14V5.52H701l6.1.05c2,0,4.06.11,6.09.16l-.26.26c0-1,.07-1.92.11-2.88s.09-1.92.15-2.89c.06,1,.1,1.93.14,2.89s.1,1.92.12,2.88v.25h-.26c-2,0-4.06.12-6.09.15l-6.1.06.47-.47q0,2.07,0,4.14L701,9.66c3,0,5.94,0,8.91.13S715.8,10,718.77,10.13Z"/><path class="cls-2" d="M3.63,83.15c-.14-3.36-.25-6.71-.31-10.07l-.1-5,0-5v-.45h.44l3.92,0H8V63c0,3.86,0,7.73,0,11.59l-.43-.42c2.1,0,4.2.06,6.3.1h.33v.32l-.07,3.31-.25-.25,3.75.11,3.76.15-3.76.14-3.75.11h-.26v-.27l-.07-3.31.33.33c-2.1,0-4.2.1-6.3.1H7.13v-.43c0-3.86-.09-7.73,0-11.59l.47.47-3.92,0L4.08,63l0,5-.1,5C3.89,76.44,3.78,79.79,3.63,83.15Z"/><path class="cls-2" d="M107.64,33.06c.08,1.51.12,3,.17,4.53v.16h-.18c-1.92.07-3.85.1-5.77.14l.31-.31.1,4.72-.41-.41,11.86-.08,11.87.1h.4v.39l-.08,4v.32h-.3c-2.17,0-4.34-.09-6.5-.18l.13-.14c0,1.21-.08,2.41-.14,3.61,0-1.2-.1-2.4-.13-3.61v-.13h.15c2.16-.09,4.33-.14,6.5-.18l-.31.31-.09-4,.4.39-11.87.09-11.86-.07h-.42v-.41l.09-4.72v-.32h.31c1.92,0,3.85.08,5.77.15l-.16.17C107.52,36.08,107.57,34.57,107.64,33.06Z"/><path class="cls-2" d="M634.33,36.88c.07,1.51.12,3,.17,4.53v.16h-.17c-1.93.08-3.85.11-5.78.15l.32-.31.09,4.72-.41-.41,11.87-.08,11.86.1h.4v.39l-.08,4v.32h-.31q-3.24,0-6.5-.17l.14-.14c0,1.2-.08,2.4-.14,3.61-.06-1.21-.1-2.41-.14-3.61V50h.14c2.17-.08,4.34-.13,6.5-.17l-.31.31-.08-4,.39.39-11.86.09-11.87-.07h-.42v-.4l.1-4.72v-.32h.31c1.93,0,3.85.07,5.78.15l-.17.17C634.21,39.9,634.26,38.39,634.33,36.88Z"/><polygon class="cls-2" points="628.55 83.14 628.55 59.89 620.34 59.89 620.34 51.95 643.13 51.95 680.4 51.95 680.4 67.81 720 67.81 720 83.14 628.55 83.14"/><polygon class="cls-2" points="519.72 0 519.72 13.62 533.39 33.06 609.84 33.06 609.84 0 519.72 0"/><rect class="cls-3" x="536.95" width="7.95" height="37.59"/><rect class="cls-3" x="551.98" y="22.55" width="7.95" height="22.12" transform="translate(589.57 -522.34) rotate(90)"/><circle class="cls-4" cx="567.01" cy="33.61" r="9.69"/><circle class="cls-5" cx="567.01" cy="33.61" r="8.12"/><circle class="cls-6" cx="567.01" cy="33.61" r="4.94"/><rect class="cls-3" x="607.52" y="59.89" width="4.64" height="23.26" transform="translate(1219.67 143.04) rotate(180)"/><rect class="cls-3" x="598.83" y="56.05" width="4.85" height="12.52" transform="translate(538.94 663.57) rotate(-90)"/><circle class="cls-4" cx="595" cy="62.32" r="6.96"/><circle class="cls-5" cx="595" cy="62.32" r="5.83"/><circle class="cls-6" cx="595" cy="62.32" r="3.55"/><rect class="cls-3" x="620.41" width="4.64" height="27.23"/><rect class="cls-3" x="665.88" width="4.64" height="18.79"/><rect class="cls-3" x="619.18" y="64.36" width="2.32" height="18.79"/><rect class="cls-3" x="654.58" y="18.79" width="4.64" height="18.79"/><rect class="cls-3" x="657.91" y="10.83" width="4.64" height="11.3" transform="translate(676.7 -643.75) rotate(90)"/><rect class="cls-3" x="635.99" y="49.68" width="2.76" height="32.18" transform="translate(703.14 -571.6) rotate(90)"/><circle class="cls-4" cx="622.72" cy="27.23" r="6.96"/><circle class="cls-5" cx="622.72" cy="27.23" r="5.83"/><circle class="cls-6" cx="622.72" cy="27.23" r="3.55"/><circle class="cls-4" cx="656.9" cy="37.59" r="6.96"/><circle class="cls-5" cx="656.9" cy="37.59" r="5.83"/><circle class="cls-6" cx="656.9" cy="37.59" r="3.55"/><circle class="cls-4" cx="653.68" cy="66.67" r="4.92"/><circle class="cls-5" cx="653.68" cy="66.67" r="4.12"/><circle class="cls-6" cx="653.68" cy="66.67" r="2.51"/><rect class="cls-7" x="596.07" width="2.38" height="13.97"/><circle class="cls-4" cx="597.25" cy="13.86" r="3.57"/><circle class="cls-5" cx="597.25" cy="13.86" r="2.99"/><circle class="cls-6" cx="597.25" cy="13.86" r="1.82"/><rect class="cls-3" x="556.13" y="64.24" width="2.38" height="18.91" transform="translate(1114.65 147.39) rotate(180)"/><circle class="cls-4" cx="557.32" cy="64.24" r="3.57"/><circle class="cls-5" cx="557.32" cy="64.24" r="2.99"/><circle class="cls-6" cx="557.32" cy="64.24" r="1.82"/><path class="cls-2" d="M532.81,83.15l-.15-5.26-.12-5.27.27.27-7,.1h-.36v-.38q0-2.73-.06-5.46v-.42h.43l10.68,0c3.56,0,7.13,0,10.69,0l-.44.45,0-4.84.42.41-4.31,0h-.38v-.36l.09-5.83.28.28c-2.37,0-4.75-.09-7.12-.15h-.14v-.13l.13-4.55.13,4.55-.13-.13c2.37-.06,4.75-.13,7.12-.15h.28v.29l.09,5.83-.37-.38,4.31,0h.41v.43l0,4.84v.44h-.44c-3.56,0-7.13.06-10.69,0l-10.68,0,.42-.42c0,1.82,0,3.64,0,5.46l-.37-.36,7,.1h.27v.26L533,77.89Z"/><path class="cls-2" d="M577.37,83.15c-.24-1.8-.38-3.59-.5-5.39l0-.47.53,0c1,0,2-.11,3-.13l-.63.63c-.06-1.55-.09-3.09-.09-4.64l.72.72c-.87,0-1.74,0-2.61,0s-1.74,0-2.61,0l-.67,0,0-.63c0-1.66.12-3.32.25-5l.4.41c-1.35-.1-2.7-.22-4.06-.41,1.36-.18,2.71-.3,4.06-.4l.37,0,0,.43c.12,1.66.2,3.32.25,5l-.66-.65c.87,0,1.74-.06,2.61-.06s1.74,0,2.61,0h.73v.71c0,1.55,0,3.09-.09,4.64l0,.65-.61,0c-1,0-2-.09-3-.14l.49-.49C577.74,79.56,577.61,81.35,577.37,83.15Z"/><path class="cls-2" d="M488.42,3.71c3-.17,5.94-.27,8.9-.34s5.94-.09,8.91-.13h.46v.47c0,1.38,0,2.76,0,4.14v.48h-.46l-6.1-.05c-2,0-4.06-.11-6.09-.16l.26-.26c0,1-.07,1.92-.11,2.88s-.09,1.93-.15,2.89c-.06-1-.1-1.92-.14-2.89s-.1-1.92-.12-2.88V7.6H494c2,0,4.06-.12,6.09-.15l6.1-.06-.47.47q0-2.07,0-4.14l.47.47c-3,0-5.94,0-8.91-.12S491.39,3.89,488.42,3.71Z"/><path class="cls-2" d="M492.05,83.15c-.14-3.36-.25-6.71-.3-10.07l-.11-5,0-5v-.45h.44l3.92,0h.47V63c0,3.86,0,7.73,0,11.59l-.43-.42c2.1,0,4.2.06,6.3.1h.33v.32l-.06,3.31-.26-.25,3.75.11,3.76.15-3.76.14-3.75.11H502v-.27l-.07-3.31.33.33c-2.1,0-4.2.1-6.3.1h-.42v-.43c0-3.86-.09-7.73-.05-11.59l.47.47-3.92,0,.45-.44,0,5-.11,5C492.31,76.44,492.2,79.79,492.05,83.15Z"/><path class="cls-2" d="M596.07,33.06c.07,1.51.11,3,.16,4.53v.16h-.17c-1.93.07-3.86.1-5.78.14l.31-.31.1,4.72-.41-.41,11.86-.08,11.87.1h.4v.39l-.08,4v.32H614c-2.17,0-4.34-.09-6.5-.18l.14-.14c0,1.21-.08,2.41-.14,3.61-.06-1.2-.11-2.4-.14-3.61v-.13h.15c2.16-.09,4.33-.14,6.5-.18l-.31.31-.08-4,.39.39-11.87.09-11.86-.07h-.42v-.41l.09-4.72v-.32h.31c1.92,0,3.85.08,5.78.15l-.17.17C596,36.08,596,34.57,596.07,33.06Z"/><path class="cls-3" d="M456.91,12c0,34.35-43.38,62.19-96.91,62.19S263.09,46.39,263.09,12A41,41,0,0,1,264.9,0H455.1A41,41,0,0,1,456.91,12Z"/><circle class="cls-10" cx="454.54" cy="10.13" r="2.06"/><circle class="cls-10" cx="404.41" cy="36.25" r="2.06"/><path class="cls-11" d="M332.92,3.65c-1.79,2-3.62,4-5.43,6l-.05-.35,6.81,3.89q3.4,1.94,6.78,3.93l.9.53-1,.26-9,2.27.36-.57,1.1,5.1-.18-.28L341.05,30l.72.52-.85.22-6.77,1.82c-2.25.59-4.51,1.21-6.77,1.78l.13-.19c-.05,2.23-.1,4.47-.19,6.7-.08-2.23-.13-4.47-.19-6.7v-.14l.14,0c2.23-.7,4.47-1.36,6.71-2l6.72-2-.13.74-7.92-5.55-.15-.1,0-.18-1.13-5.09-.1-.46.45-.11,9-2.18-.12.79c-2.24-1.34-4.48-2.69-6.7-4.06l-6.68-4.11L327,9.51l.2-.19C329.08,7.43,331,5.52,332.92,3.65Z"/><circle class="cls-10" cx="413.82" cy="19.59" r="1.62"/><path class="cls-2" d="M265.19,25c2.73-.85,5.47-1.69,8.22-2.48l.09,0,.1,0c2.44,1,4.91,2,7.34,3l-.45.08L284,22.43l-.09.11c1-1.83,2.06-3.67,3.13-5.48l.12-.22.25,0,7.29-.62c2.43-.21,4.87-.38,7.3-.55h-.05q5.09-1.15,10.18-2.18-5,1.47-10,2.8H302c-2.43.27-4.85.55-7.28.77l-7.29.71.38-.24c-1,1.83-2.12,3.64-3.17,5.46l0,.06-.05.05-3.5,3.12-.21.18-.24-.1c-2.43-1.07-4.82-2.19-7.23-3.28h.18C270.78,23.72,268,24.36,265.19,25Z"/><circle class="cls-10" cx="354.66" cy="66.92" r="6.22"/><circle class="cls-10" cx="326.47" cy="8.59" r="2.06"/><path class="cls-11" d="M370.77,3.65c-1.79,1.42-3.61,2.79-5.42,4.19l0-.36,5.59,2.81.62.31-.64.29c-2.12,1-4.24,2-6.38,2.92l.05-.75L371,17l.73.45-.79.37c-2.12,1-4.27,2-6.42,3l-.06,0h-.07L356.12,22l.33-.26L354.64,26l0,0,0,0c-1.74,2.33-3.47,4.67-5.25,7l0-.2,3.46,2.6L349.15,33,349,33l.09-.13c1.61-2.42,3.28-4.8,4.93-7.19l0,.07,1.67-4.34.09-.22.24,0,8.27-1.21-.13,0c2.14-1,4.27-2,6.42-3l-.05.83-6.4-4-.68-.43.74-.32c2.14-.94,4.3-1.85,6.45-2.75l0,.6-5.48-3-.31-.17.28-.2C367,6.21,368.86,4.91,370.77,3.65Z"/><circle class="cls-10" cx="361.99" cy="8.92" r="4.43"/><circle class="cls-10" cx="338.75" cy="17.47" r="2.06"/><circle class="cls-10" cx="435.91" cy="8.08" r="2.06"/><path class="cls-2" d="M263.09,7.17c1.28.95,2.56,1.92,3.8,2.94s2.5,2,3.72,3l-.56,0c1.36-1.08,2.74-2.13,4.12-3.19l.42-.32.28.45c.65,1.06,1.31,2.11,1.95,3.18l-.37-.21c1.6,0,3.2.1,4.8.16s3.2.16,4.8.28c-1.6.13-3.2.24-4.8.29s-3.2.14-4.8.16h-.24l-.14-.21c-.69-1-1.35-2.09-2-3.14l.7.13c-1.38,1-2.76,2.1-4.17,3.13l-.29.21-.26-.23c-1.2-1.07-2.35-2.18-3.52-3.28S264.21,8.31,263.09,7.17Z"/><path class="cls-2" d="M360,74.23c2.1-.87,4.21-1.7,6.33-2.52l.06.52c-3.49-.21-7-.42-10.46-.68l-3.07-.22,3-.93,9.06-2.83-.05,1.48-10.49-3.68-2-.71,1.92-1,10.25-5.18-.06,1.69-8.94-5.32-1-.58.75-.85,5.86-6.58-.19.81c-.8-3-1.58-6-2.35-9l0,.07L356,31.59l-.15-.41.32-.25c2.3-1.78,4.63-3.52,7-5.26L363,26c-.83-2.46-1.65-4.92-2.44-7.4,1,2.38,2,4.78,3,7.18l.08.2-.18.15c-2.2,1.9-4.4,3.8-6.62,5.67l.17-.65,3,7.06v.07c.89,3,1.77,5.94,2.62,8.91l.13.45-.31.36-5.75,6.67-.23-1.43,9,5.28,1.54.91-1.6.79-10.29,5.09-.1-1.68,10.39,3.94,2.26.85-2.31.63-9.16,2.46L356,70.38c3.47.4,6.94.86,10.4,1.31l1.22.16-1.15.37Q363.27,73.26,360,74.23Z"/><circle class="cls-12" cx="449.62" cy="28.78" r="2.87"/><path class="cls-2" d="M456.91,10.65c-1.41-.35-2.78-.78-4.14-1.23-.68-.23-1.37-.46-2-.71s-1.35-.48-2-.76l.47.07c-.88.16-1.75.35-2.63.5L443.91,9l.25-.07-2.91,1.28c-1,.4-2,.81-2.95,1.2l-1.23.48.09-1.21c.07-.94.11-1.87.2-2.81l.52.6c-1.58-.35-3.16-.76-4.72-1.26,1.64-.06,3.27,0,4.89.07l.46,0,.06.57c.09.94.13,1.87.2,2.81l-1.14-.73c.95-.49,1.9-1,2.85-1.44l2.88-1.35.12-.06.13,0,2.66-.38c.88-.13,1.77-.21,2.66-.32l.27,0,.2.1c.65.31,1.28.65,1.92,1s1.26.67,1.89,1C454.47,9.11,455.71,9.84,456.91,10.65Z"/><path class="cls-2" d="M455.54,21.6c-.79,1.14-1.59,2.28-2.43,3.37s-1.66,2.22-2.53,3.29l-.48.59-.27-.73q-1.09-2.94-2-5.94l.58.27c-1.22.47-2.46.9-3.69,1.35l-.07,0h-.05c-1.1,0-2.21-.06-3.31-.13s-2.21-.11-3.31-.2c1.1-.09,2.2-.13,3.31-.2s2.21-.08,3.31-.13l-.12,0c1.2-.53,2.4-1.06,3.61-1.55l.41-.17.16.43q1.1,2.94,2,5.94l-.76-.14c.9-1.05,1.85-2.06,2.77-3.09S454.56,22.59,455.54,21.6Z"/><polygon class="cls-1" points="456.05 3.71 263.95 3.71 261.5 0.01 460.76 0.01 456.05 3.71"/><path class="cls-2" d="M442,45.18c-2.95.2-5.9.29-8.85.37l-.88,0,.63-.65c1.15-1.19,2.34-2.33,3.51-3.48L440,38l.39.83-4.23.46c-1.41.14-2.82.32-4.23.44h-.15l-.1-.07L427.74,37c-1.28-.92-2.57-1.82-3.84-2.77,1.39.76,2.74,1.58,4.11,2.36L432.06,39l-.25-.06c1.4-.22,2.81-.37,4.22-.56l4.22-.54,1.46-.18-1.07,1-3.6,3.4c-1.21,1.12-2.4,2.27-3.63,3.37l-.25-.63C436.11,44.89,439.06,45,442,45.18Z"/><circle class="cls-12" cx="337.21" cy="57.25" r="4.29"/><circle class="cls-12" cx="412.2" cy="56.58" r="5.74"/><path class="cls-2" d="M403.66,67.57c-1.34-.56-2.67-1.14-4-1.76s-2.62-1.25-3.93-1.87l-.84-.41.73-.69L398,60.58l.21,1.36-3.85-1.56-.55-.22v-.62l0-4.14v-.22l.1-.22c.33-.66.66-1.32,1-2l.62,1.36c-2.37-.61-4.74-1.26-7.09-1.94L386.92,52l1.13-1c.73-.65,1.49-1.27,2.23-1.9s1.5-1.26,2.26-1.88l0,.83c-.78-.85-1.55-1.73-2.31-2.6l0-.05h0c-.53-1-1.05-2-1.54-3,.72.89,1.42,1.79,2.1,2.69l-.05,0c.89.74,1.78,1.49,2.65,2.25l.43.37-.44.46c-.67.71-1.36,1.41-2.05,2.1s-1.37,1.39-2.07,2.07l-.37-1.43c2.4.54,4.78,1.1,7.16,1.7l1.14.29-.52,1.08c-.32.67-.65,1.33-1,2l.1-.43,0,4.14-.56-.85,3.77,1.76,1.21.56-1,.8-2.58,2-.11-1.1c1.22.78,2.46,1.54,3.66,2.35S402.48,66.72,403.66,67.57Z"/><path class="cls-2" d="M328.52,70.87c1.51-1.92,3.08-3.77,4.62-5.65l.06.62c-1.71-1.12-3.38-2.29-5.07-3.44l-1-.67,1.13-.49c2.56-1.12,5.1-2.26,7.67-3.34l-.16,1.53c-2.62-1.72-5.21-3.47-7.8-5.23l-1.16-.78,1.17-.81c1.5-1,3-2,4.54-3.06s3-2,4.56-3l.41,1.66c-2.7-.33-5.4-.65-8.1-1l-1.79-.24,1.4-1.07c1.21-.93,2.42-1.87,3.65-2.78s2.45-1.84,3.69-2.73l-.13.19c.84-2.12,1.65-4.24,2.53-6.34-.54,2.21-1.17,4.39-1.77,6.59l0,.09-.11.09c-1.13,1-2.28,2-3.43,3s-2.31,2-3.47,3l-.39-1.32c2.71.2,5.42.46,8.13.69l2.45.22-2,1.44c-1.49,1.06-3,2.07-4.51,3.1s-3,2.07-4.53,3.07V52.61c2.57,1.78,5.15,3.56,7.69,5.38l1.31.94-1.47.58c-2.6,1-5.21,2-7.82,3l.14-1.16c1.6,1.28,3.21,2.54,4.78,3.84l.38.32-.32.31C332,67.48,330.31,69.21,328.52,70.87Z"/><path class="cls-13" d="M430.16,54.94a48.23,48.23,0,0,1-9.29,2.93,22.25,22.25,0,0,1-4.9.46,9.31,9.31,0,0,1-2.49-.4,4.94,4.94,0,0,1-2.22-1.37,4.29,4.29,0,0,1-1-2.44,10.85,10.85,0,0,1,0-1.27,5.91,5.91,0,0,1,.11-1.26,10.56,10.56,0,0,1,1.93-4.65,18.06,18.06,0,0,1,8-5.8V42l-14-4.85-.87-.28-.44-.14-.21-.06-.12,0a.72.72,0,0,1-.2-.09,1.56,1.56,0,0,1-.45-1.06,7.92,7.92,0,0,1,0-1,23,23,0,0,1,.49-3.71c.24-1.22.53-2.43.87-3.62a12.24,12.24,0,0,1,1.39-3.43,6.35,6.35,0,0,0-.7,1.7c-.17.59-.33,1.19-.47,1.79-.27,1.2-.5,2.41-.68,3.63a28.31,28.31,0,0,0-.34,3.65,6.29,6.29,0,0,0,.06.88,1.28,1.28,0,0,0,.21.63l.8.22.9.26c4.74,1.43,9.41,3,14.11,4.62l1.19.4-1.19.47a20.17,20.17,0,0,0-4.15,2.26A15.13,15.13,0,0,0,413,47.49a9.5,9.5,0,0,0-1.81,4.23c-.2,1.5-.28,3.21.7,4.31A5.75,5.75,0,0,0,416,57.66a22,22,0,0,0,4.78-.29A56,56,0,0,0,430.16,54.94Z"/><path class="cls-13" d="M270,35.2a23.65,23.65,0,0,1,4.44.27,16.88,16.88,0,0,1,4.32,1.17,7,7,0,0,1,3.44,3c.69,1.32,1.36,2.63,2.11,3.88A14.3,14.3,0,0,0,287,46.85a3.13,3.13,0,0,0,1.75.79,2.56,2.56,0,0,0,1.75-.56,9.06,9.06,0,0,0,1.91-3.69,23.36,23.36,0,0,1,1.71-4.19,5.9,5.9,0,0,1,.69-1l.4-.45.49-.38a4,4,0,0,1,1.1-.58,7.17,7.17,0,0,1,1.21-.23c.41,0,.81,0,1.21.07s.76.16,1.13.25A5.75,5.75,0,0,1,302.46,38a7.83,7.83,0,0,1,1.45,1.83,2.9,2.9,0,0,0,1.46,1.25,9.77,9.77,0,0,0,4.2.27,11.58,11.58,0,0,0,7.82-3.22,12.41,12.41,0,0,0,2.32-3.68,36.61,36.61,0,0,1,1.82-4.05c-.67,1.33-1,2.76-1.58,4.15a12.92,12.92,0,0,1-2.21,3.9A9.71,9.71,0,0,1,314,41a15.19,15.19,0,0,1-2.17.69c-.74.13-1.48.31-2.23.37a9.81,9.81,0,0,1-4.58-.24,3.81,3.81,0,0,1-1.87-1.55,6.76,6.76,0,0,0-1.3-1.63,4.85,4.85,0,0,0-1.81-.88l-1-.21-1-.06a3.92,3.92,0,0,0-3.11,2.18,22.49,22.49,0,0,0-1.66,4,19.55,19.55,0,0,1-.84,2.1,5.89,5.89,0,0,1-1.38,2,3.44,3.44,0,0,1-2.38.74,4.08,4.08,0,0,1-2.23-1,13.46,13.46,0,0,1-2.73-3.65c-.73-1.31-1.37-2.65-2-4a6.4,6.4,0,0,0-3.09-2.8A22.46,22.46,0,0,0,270,35.2Z"/><circle class="cls-11" cx="310.49" cy="24.52" r="4.99"/><circle class="cls-11" cx="392.62" cy="7.73" r="2.4"/><circle class="cls-11" cx="425.73" cy="18.23" r="6.1"/><circle class="cls-11" cx="314.98" cy="62.81" r="2.98"/><path class="cls-13" d="M305.94,63.66a32.29,32.29,0,0,1-3.37-1.94,16.18,16.18,0,0,1-1.56-1.2,4.18,4.18,0,0,1-1.3-1.66,1.12,1.12,0,0,1,0-.72,1.28,1.28,0,0,1,.47-.52,4.82,4.82,0,0,1,.92-.49,14,14,0,0,1,1.89-.64c1.26-.35,2.53-.61,3.8-.87s2.52-.5,3.77-.78a12.66,12.66,0,0,1,3.93-.54,14.62,14.62,0,0,0,1.87.15c.54,0,.82-.53,1-1.1a25.19,25.19,0,0,0,.8-3.75,19.07,19.07,0,0,1-.34,3.89,3,3,0,0,1-.42,1c-.08.16-.28.28-.42.41a1.77,1.77,0,0,1-.56.19,16.36,16.36,0,0,1-2,0,13.18,13.18,0,0,0-3.68.69c-1.27.31-2.54.57-3.8.83s-2.52.5-3.76.8a16.22,16.22,0,0,0-1.79.54,4.57,4.57,0,0,0-.8.39c-.24.15-.24.15-.22.38a3.73,3.73,0,0,0,1,1.4c.44.44.93.85,1.42,1.26C303.84,62.16,304.89,62.91,305.94,63.66Z"/><path class="cls-2" d="M276.5,43.62c1-.79,2.08-1.55,3.12-2.32s2.09-1.54,3.15-2.29l.05,0h.06l6.6-1.38-.22.12L294.68,32l-.11.18c.48-1.47,1-2.93,1.5-4.39l.11-.32h.33l6.31,0c2.1,0,4.2.08,6.3.11l-.1,0c2.82-1,5.67-2,8.53-2.9-2.76,1.19-5.53,2.36-8.32,3.47l0,0h-.07c-2.1,0-4.2.12-6.3.12l-6.31.05.45-.32c-.49,1.47-1,2.93-1.49,4.39l0,.11-.07.07-5.51,5.59-.09.1-.13,0L283,39.51l.1,0c-1.08.71-2.18,1.4-3.28,2.09S277.61,43,276.5,43.62Z"/><circle class="cls-12" cx="376.7" cy="42.31" r="10.28"/><circle class="cls-11" cx="386.04" cy="28.49" r="2.58"/><circle class="cls-11" cx="296.98" cy="7.75" r="1.73"/><path class="cls-11" d="M419.62,3.71c-1.47.91-3,1.77-4.45,2.65l-4.51,2.57,0-.68c1.54.63,3.06,1.33,4.59,2l1.29.55-1.38.28-4,.81c-1.31.27-2.64.5-4,.75h-.09l-4.77-.05.39-.55c.67,1.93,1.28,3.88,1.92,5.83l.09.25-.24.1c-1,.39-2,.75-3,1.12s-2,.74-3.05,1.09c1-.47,1.95-.93,2.93-1.38s2-.91,2.95-1.34l-.16.34c-.73-1.91-1.49-3.81-2.19-5.73l-.2-.56h.6l4.77,0H407c1.32-.26,2.64-.55,4-.78l4-.74-.1.84c-1.51-.7-3-1.37-4.54-2.11l-.69-.34.67-.34,4.63-2.32C416.5,5.2,418.05,4.43,419.62,3.71Z"/><path class="cls-8" d="M708.57,48.68c0-.12.14,0,.16,0a1.18,1.18,0,0,1,.13.18c.08.13.14.26.21.39s.24.55.34.82a17.62,17.62,0,0,1,.54,1.7,12.54,12.54,0,0,1,.39,3.57,4.75,4.75,0,0,1-1.42,3.41,4.88,4.88,0,0,1-3.58,1,5.66,5.66,0,0,1-1.85-.38A2.35,2.35,0,0,1,702.08,58a3.87,3.87,0,0,1,1-3.57,4.93,4.93,0,0,1,1.49-1.14,2.45,2.45,0,0,1,1.88-.15c1.26.58,1.57,1.94,1.73,3.06-.32-1.09-.81-2.35-1.86-2.68a2.84,2.84,0,0,0-2.75,1.32,3.31,3.31,0,0,0-.85,2.92c.32.94,1.51,1.18,2.62,1.27a4.12,4.12,0,0,0,3.07-.75,4.5,4.5,0,0,0,1.3-2.92,12.45,12.45,0,0,0-.17-3.44,14.64,14.64,0,0,0-.37-1.72,8,8,0,0,0-.26-.83,2.86,2.86,0,0,0-.15-.41,1.24,1.24,0,0,0-.1-.2S708.6,48.57,708.57,48.68Z"/><path class="cls-8" d="M701.05,46.32c-.09.07-.1-.09-.08-.14a1.43,1.43,0,0,1,0-.22c0-.15.08-.29.13-.43s.21-.55.33-.82a15.84,15.84,0,0,1,.83-1.58,12,12,0,0,1,2.25-2.8A4.73,4.73,0,0,1,708,38.92a4.88,4.88,0,0,1,3.23,1.84,5.65,5.65,0,0,1,1,1.57,2.36,2.36,0,0,1,0,2A3.87,3.87,0,0,1,709,46.12a4.66,4.66,0,0,1-1.85-.25,2.42,2.42,0,0,1-1.45-1.23c-.48-1.29.27-2.47.94-3.38-.54,1-1.09,2.24-.57,3.21a2.83,2.83,0,0,0,2.88,1A3.34,3.34,0,0,0,711.56,44c.44-.89-.23-1.9-.95-2.75a4.16,4.16,0,0,0-2.7-1.64,4.43,4.43,0,0,0-3,1.15,12.3,12.3,0,0,0-2.32,2.55,16,16,0,0,0-1,1.47c-.14.25-.28.51-.41.78l-.18.4a1.17,1.17,0,0,0-.06.2C701,46.24,701,46.37,701.05,46.32Z"/><path class="cls-8" d="M713.31,30c.12,0,0,.13,0,.16a1.18,1.18,0,0,1-.18.13l-.39.21c-.27.13-.55.24-.82.34a17.62,17.62,0,0,1-1.7.54,12.54,12.54,0,0,1-3.57.39,4.79,4.79,0,0,1-3.41-1.42,4.91,4.91,0,0,1-1-3.59,5.6,5.6,0,0,1,.38-1.84A2.39,2.39,0,0,1,704,23.47a3.87,3.87,0,0,1,3.57,1.06A5,5,0,0,1,708.73,26a2.48,2.48,0,0,1,.15,1.89,3.62,3.62,0,0,1-3.06,1.73c1.09-.32,2.35-.81,2.68-1.86A2.86,2.86,0,0,0,707.18,25a3.33,3.33,0,0,0-2.92-.84c-.94.32-1.18,1.5-1.27,2.62a4.09,4.09,0,0,0,.75,3.06,4.4,4.4,0,0,0,2.92,1.3A12.44,12.44,0,0,0,710.1,31a14.64,14.64,0,0,0,1.72-.37,8,8,0,0,0,.83-.26l.41-.15a1.24,1.24,0,0,0,.2-.1S713.42,30,713.31,30Z"/><polygon class="cls-9" points="720 57.44 692.51 55.74 720 54.04 720 57.44"/><polygon class="cls-9" points="720 43.82 692.51 42.12 720 40.42 720 43.82"/><polygon class="cls-9" points="720 29.25 692.51 27.55 720 25.86 720 29.25"/><path class="cls-2" d="M673.79,53.71c-.45-3.3-.65-6.6-.81-9.89l0-.79.84,0,3.81-.13,3.81,0-1,1,0-2.45c0-.82,0-1.64,0-2.45l.91.91q-2.89-.07-5.79-.24l-.72,0,0-.63c.09-1.2.16-2.39.27-3.59s.24-2.39.41-3.58c.16,1.19.3,2.39.4,3.58s.18,2.39.27,3.59l-.67-.68q2.89-.16,5.79-.23l.88,0,0,.94c0,.81,0,1.63,0,2.45l0,2.45v1h-1l-3.81,0-3.81-.12.81-.81C674.45,47.11,674.25,50.41,673.79,53.71Z"/></svg>