<svg id="Layer_1" data-name="Layer 1" xmlns="http://www.w3.org/2000/svg" viewBox="0 0 122.85 360"><defs><style>.cls-1{fill:#6497c2;}.cls-2{fill:#3d728b;}.cls-3{fill:#2d5766;}.cls-4{fill:#87a4d8;}.cls-5{fill:#52719e;}.cls-6{fill:#fff6fa;}</style></defs><rect class="cls-1" x="6.85" y="5.5" width="109.16" height="348.44"/><path class="cls-2" d="M113.3,8.2v343H9.55V8.2H113.3m5.41-5.4H4.14V356.64H118.71V2.8Z"/><polygon class="cls-3" points="113.3 187.84 67.77 187.84 67.77 208.53 44.61 208.53 44.61 319.81 97.66 319.81 97.66 351.8 113.3 351.8 113.3 187.84"/><rect class="cls-2" x="9.55" y="276.84" width="17.06" height="5"/><rect class="cls-1" x="67.75" y="197.18" width="29.91" height="5"/><rect class="cls-1" x="86.78" y="208.05" width="26.76" height="5" transform="translate(310.71 110.4) rotate(90)"/><rect class="cls-2" x="15.99" y="266.22" width="16.24" height="5" transform="translate(-244.61 292.83) rotate(-90)"/><circle class="cls-4" cx="24.11" cy="260.6" r="5"/><circle class="cls-5" cx="24.11" cy="260.6" r="4.19"/><circle class="cls-6" cx="24.11" cy="260.6" r="2.55"/><rect class="cls-3" x="27.55" y="215.97" width="17.06" height="5" transform="translate(72.16 436.93) rotate(180)"/><rect class="cls-3" x="21.93" y="226.59" width="16.24" height="5" transform="translate(259.14 199.04) rotate(90)"/><circle class="cls-4" cx="30.05" cy="237.21" r="7.94"/><circle class="cls-5" cx="30.05" cy="237.21" r="6.65"/><circle class="cls-6" cx="30.05" cy="237.21" r="4.05"/><circle class="cls-4" cx="100.16" cy="223.93" r="10.72"/><circle class="cls-5" cx="100.16" cy="223.93" r="8.98"/><circle class="cls-6" cx="100.16" cy="223.93" r="5.46"/><rect class="cls-3" x="58.34" y="332.28" width="39.32" height="7.59"/><circle class="cls-4" cx="58.34" cy="336.08" r="8.16"/><circle class="cls-5" cx="58.34" cy="336.08" r="6.84"/><circle class="cls-6" cx="58.34" cy="336.08" r="4.16"/><rect class="cls-2" x="9.55" y="297.86" width="59.94" height="7.59" transform="translate(79.04 603.3) rotate(180)"/><rect class="cls-2" x="46.55" y="274.92" width="53.46" height="7.59" transform="translate(352 205.43) rotate(90)"/><circle class="cls-4" cx="73.28" cy="251.98" r="8.16"/><circle class="cls-5" cx="73.28" cy="251.98" r="6.84"/><circle class="cls-6" cx="73.28" cy="251.98" r="4.16"/><path class="cls-2" d="M9.55,334.19q1.89-.21,3.78-.36l-.35.36c-.1-1.06-.16-2.13-.24-3.19s-.13-2.12-.19-3.18c-.13-2.12-.21-4.24-.29-6.37l0-1,1.11-.05c2.39-.11,4.77-.13,7.16-.2l1.23,0,0,1.3c0,1.75,0,3.49,0,5.24s0,3.48,0,5.23l0,5.23-.13,5.23-1.16-1.17c1.28,0,2.56.09,3.84.14s2.55.09,3.83.17l-.86.86c.09-1.54.16-3.07.27-4.6l.05-.63.54,0c2.3.16,4.6.34,6.9.59-2.3.25-4.6.43-6.9.59l.59-.59c.12,1.53.18,3.06.27,4.6l.05.8-.91.06c-1.28.08-2.56.11-3.83.17s-2.56.11-3.84.13l-1.14,0,0-1.18-.12-5.23-.05-5.23c0-1.75,0-3.49,0-5.23s0-3.49.06-5.24l1.27,1.27c-2.39-.06-4.77-.08-7.16-.19l1.07-1.08c-.08,2.13-.16,4.25-.29,6.37,0,1.06-.11,2.12-.19,3.18s-.14,2.13-.23,3.19l0,.38-.32,0C12.07,334.44,10.81,334.32,9.55,334.19Z"/><path class="cls-2" d="M87.31,319.81c.14,1,.2,2.09.31,3.13s.15,2.09.19,3.13l0,.48-.52,0c-3.11.14-6.21.2-9.31.15h-.66v-.65c0-.93,0-1.87.06-2.81l.6.59c-1.42,0-2.84-.1-4.26-.2s-2.83-.22-4.25-.39c1.42-.18,2.84-.29,4.25-.39s2.84-.16,4.26-.21h.57l0,.61c0,.94.06,1.88.06,2.81l-.65-.65c3.1-.05,6.2,0,9.31.15l-.5.5c0-1,.11-2.08.19-3.13S87.17,320.85,87.31,319.81Z"/><path class="cls-2" d="M9.55,249.37c2.18-.15,4.36-.22,6.54-.33h.31l0,.34c.06,1.95.14,3.91.17,5.86l-.5-.5,3.83-.08-.58.58c-.06-3.24-.08-6.47-.09-9.71v-.67h3.53v3.35l-.66-.66q5.22,0,10.44.16h.51v.49l-.13,4.16-.37-.38c1.31,0,2.62.11,3.93.17s2.62.12,3.93.21c-1.31.08-2.62.15-3.93.2s-2.62.13-3.93.17h-.36v-.38l-.13-4.16.5.49q-5.22.13-10.44.16h-.65v-3.34l.67.67H19.92l.67-.67c0,3.24,0,6.47-.08,9.71l0,.6-.57,0-3.83-.08h-.51v-.49c0-1.95.11-3.91.18-5.86l.32.32C13.91,249.58,11.73,249.52,9.55,249.37Z"/><path class="cls-2" d="M44.61,312.45c-1.82.16-3.65.23-5.47.34l.34-.34c.16,3.43.24,6.86.3,10.29s0,6.86,0,10.29l-.65-.65,4,.08-.57.57c.06-2,.11-3.91.2-5.86l0-.39h.35c1,0,2.07.12,3.11.17s2.07.12,3.1.21c-1,.08-2.07.15-3.1.2s-2.07.13-3.11.17l.38-.37c.09,1.95.14,3.9.2,5.86v.56h-.59l-4,.07-.64,0V333q-.06-5.14,0-10.29c.06-3.43.14-6.86.3-10.29l0-.36.32,0C41,312.23,42.79,312.29,44.61,312.45Z"/><polygon class="cls-3" points="9.55 172.16 55.09 172.16 55.09 151.47 78.24 151.47 78.24 40.19 25.2 40.19 25.2 8.2 9.55 8.2 9.55 172.16"/><rect class="cls-2" x="96.24" y="78.16" width="17.06" height="5" transform="translate(209.54 161.31) rotate(180)"/><rect class="cls-1" x="25.2" y="157.82" width="29.91" height="5" transform="translate(80.3 320.65) rotate(180)"/><rect class="cls-1" x="9.32" y="146.95" width="26.76" height="5" transform="translate(-126.75 172.14) rotate(-90)"/><rect class="cls-2" x="90.62" y="88.78" width="16.24" height="5" transform="translate(190.02 -7.47) rotate(90)"/><circle class="cls-4" cx="98.74" cy="99.4" r="5"/><circle class="cls-5" cx="98.74" cy="99.4" r="4.19"/><circle class="cls-6" cx="98.74" cy="99.4" r="2.55"/><rect class="cls-3" x="78.24" y="139.03" width="17.06" height="5"/><rect class="cls-3" x="84.68" y="128.41" width="16.24" height="5" transform="translate(-38.11 223.71) rotate(-90)"/><circle class="cls-4" cx="92.8" cy="122.79" r="7.94"/><circle class="cls-5" cx="92.8" cy="122.79" r="6.65"/><circle class="cls-6" cx="92.8" cy="122.79" r="4.05"/><circle class="cls-4" cx="22.7" cy="136.07" r="10.72"/><circle class="cls-5" cx="22.7" cy="136.07" r="8.98"/><circle class="cls-6" cx="22.7" cy="136.07" r="5.46"/><rect class="cls-3" x="25.2" y="20.13" width="39.32" height="7.59" transform="translate(89.71 47.85) rotate(180)"/><circle class="cls-4" cx="64.51" cy="23.92" r="8.16"/><circle class="cls-5" cx="64.51" cy="23.92" r="6.84"/><circle class="cls-6" cx="64.51" cy="23.92" r="4.16"/><rect class="cls-2" x="53.36" y="54.56" width="59.94" height="7.59"/><rect class="cls-2" x="22.84" y="77.49" width="53.46" height="7.59" transform="translate(-31.72 130.85) rotate(-90)"/><circle class="cls-4" cx="49.57" cy="108.02" r="8.16"/><circle class="cls-5" cx="49.57" cy="108.02" r="6.84"/><circle class="cls-6" cx="49.57" cy="108.02" r="4.16"/><path class="cls-2" d="M113.3,25.81q-1.89.21-3.78.36l.35-.36c.1,1.06.16,2.13.24,3.19s.13,2.12.19,3.18c.13,2.12.21,4.24.29,6.37l0,1-1.11,0c-2.39.11-4.77.13-7.16.19l-1.23,0,0-1.3c0-1.75,0-3.49,0-5.24s0-3.48,0-5.23l0-5.23.13-5.23,1.16,1.17c-1.28,0-2.56-.09-3.83-.14s-2.56-.09-3.84-.17l.86-.86c-.09,1.54-.15,3.07-.27,4.6l0,.63-.54,0c-2.3-.16-4.6-.34-6.9-.59,2.3-.25,4.6-.43,6.9-.59l-.59.59c-.12-1.53-.18-3.06-.27-4.6l0-.8.91-.06c1.28-.08,2.56-.11,3.84-.17s2.55-.11,3.83-.13l1.14,0,0,1.18.12,5.23,0,5.23c0,1.75,0,3.49,0,5.23s0,3.49-.06,5.24l-1.27-1.27c2.39.06,4.77.08,7.16.19l-1.07,1.08c.08-2.13.16-4.25.29-6.37.05-1.06.11-2.12.19-3.18s.14-2.13.23-3.19l0-.38.32,0C110.78,25.56,112,25.68,113.3,25.81Z"/><path class="cls-2" d="M35.54,40.19c-.14-1-.2-2.09-.31-3.13S35.08,35,35,33.93l0-.48.52,0c3.11-.14,6.21-.2,9.31-.15h.66v.65c0,.93,0,1.87-.06,2.81l-.6-.59c1.42,0,2.84.1,4.26.2s2.83.22,4.25.39c-1.42.18-2.83.29-4.25.39s-2.84.16-4.26.21h-.57l0-.61c0-.94-.06-1.88-.06-2.81l.65.65c-3.1.05-6.2,0-9.31-.15l.51-.5c0,1-.12,2.08-.2,3.13S35.68,39.15,35.54,40.19Z"/><path class="cls-2" d="M113.3,110.63c-2.18.15-4.36.22-6.54.33h-.31v-.34c-.07-1.95-.14-3.91-.18-5.86l.5.5-3.83.08.58-.58c.06,3.24.08,6.47.09,9.71v.67h-3.53v-.67l0-2.68.65.66q-5.22,0-10.44-.16h-.51v-.49l.13-4.16.37.38c-1.31,0-2.62-.11-3.93-.17s-2.61-.12-3.92-.21c1.31-.08,2.61-.15,3.92-.2s2.62-.13,3.93-.17h.36v.38l.13,4.16-.5-.49q5.22-.14,10.44-.16h.65v3.34l-.67-.67h2.19l-.67.67c0-3.24,0-6.47.09-9.71v-.6l.57,0,3.83.08h.51v.49c0,2-.11,3.91-.18,5.86l-.32-.32C108.94,110.42,111.12,110.48,113.3,110.63Z"/><path class="cls-2" d="M78.24,47.55c1.82-.16,3.65-.23,5.47-.34l-.34.34c-.16-3.43-.24-6.86-.3-10.29s0-6.86,0-10.29l.64.65-4-.08.57-.57c-.06,2-.11,3.91-.2,5.86l0,.39h-.35c-1,0-2.07-.12-3.11-.17s-2.07-.12-3.1-.21c1-.08,2.07-.15,3.1-.2s2.07-.13,3.11-.17l-.38.37c-.09-1.95-.14-3.9-.19-5.86l0-.56h.59l4-.07.64,0V27q0,5.14,0,10.29c-.06,3.43-.14,6.86-.3,10.29l0,.36-.32,0C81.89,47.77,80.06,47.71,78.24,47.55Z"/><polyline class="cls-1" points="9.55 181.51 31.68 181.51 31.68 192.09 17.23 192.09 17.23 199.68"/><path class="cls-2" d="M9.55,181.51c1.84-.23,3.69-.41,5.53-.55s3.69-.26,5.53-.38,3.69-.18,5.53-.23,3.69-.12,5.53-.14H33l0,1.31L33,186.8,33,192.09v1.3h-1.3c-1.2,0-2.4,0-3.61-.08s-2.4-.06-3.61-.12c-2.4-.1-4.81-.22-7.22-.39l.72-.71c-.19,2.53-.39,5.06-.72,7.59-.33-2.53-.52-5.06-.71-7.59l-.05-.66.76-.06c2.41-.17,4.82-.29,7.22-.39,1.21-.06,2.41-.07,3.61-.11s2.41-.08,3.61-.08l-1.3,1.3-.05-5.29.05-5.29,1.3,1.3c-1.84,0-3.68-.09-5.53-.13s-3.68-.16-5.53-.24-3.69-.21-5.53-.37S11.39,181.74,9.55,181.51Z"/><polyline class="cls-1" points="9.55 206.8 36.7 206.8 36.7 200.6 49.57 200.6 49.57 190.59"/><path class="cls-2" d="M9.55,206.8c4.52-.54,9.05-.82,13.58-1,2.26-.11,4.52-.16,6.78-.22s4.53-.06,6.79-.09l-1.34,1.34c0-2.07,0-4.14,0-6.2v-1.32h1.3c2.15,0,4.29.11,6.43.15l3.22.14c1.07,0,2.15.09,3.22.16l-.85.86c.1-1.67.2-3.34.35-5s.3-3.33.5-5c.2,1.67.37,3.34.5,5s.25,3.34.35,5l0,.78-.9.07c-1.07.07-2.15.11-3.22.16l-3.22.14c-2.14.05-4.28.14-6.43.15L38,200.6c0,2.06.05,4.13,0,6.2v1.36l-1.33,0c-2.26,0-4.52,0-6.79-.08s-4.52-.11-6.78-.23C18.6,207.63,14.07,207.34,9.55,206.8Z"/><polyline class="cls-1" points="113.3 149.45 92.8 149.45 92.8 159.57 102.66 159.57 102.66 165.48 74.43 165.48 74.43 173.37"/><path class="cls-2" d="M113.3,149.45c-3.41.29-6.83.47-10.25.65s-6.83.3-10.25.39l1-1c.12,3.37.15,6.74.22,10.12L92.8,158.3c1.64,0,3.29,0,4.93-.05l4.93,0H104v1.35l0,5.91v1.33h-1.31c-2.36,0-4.71,0-7.06-.07s-4.7-.07-7.06-.15-4.7-.13-7.05-.23-4.7-.2-7.06-.34l.53-.53q-.19,3.95-.53,7.88c-.21-2.62-.4-5.25-.53-7.88l0-.5.55,0c2.36-.14,4.71-.23,7.06-.33s4.7-.15,7.05-.23,4.71-.1,7.06-.15,4.7-.06,7.06-.08l-1.32,1.32,0-5.91,1.35,1.34-4.93,0c-1.64,0-3.29,0-4.93,0l-1.29,0,0-1.24c.07-3.38.1-6.75.22-10.12l0-1.08,1,0c3.42.09,6.84.23,10.25.39S109.89,149.15,113.3,149.45Z"/><polyline class="cls-1" points="113.3 181.51 61.43 181.51 61.43 164.73 67.75 164.73 67.75 157.82"/><path class="cls-2" d="M113.3,181.51c-4.32.36-8.64.6-13,.78q-3.24.15-6.48.24c-2.16.07-4.32.14-6.49.17-4.32.1-8.64.13-13,.15s-8.64,0-13-.07l-1.3,0,0-1.25c.06-2.8.08-5.59.18-8.39s.16-5.59.29-8.39l0-.82.76,0q3.15.13,6.32.32l-.48.48q.2-3.45.48-6.91.28,3.47.48,6.91l0,.45-.5,0c-2.11.12-4.22.23-6.32.31l.79-.79c.13,2.8.21,5.59.3,8.39s.11,5.59.17,8.39l-1.26-1.26c4.32-.05,8.64-.09,13-.08s8.65.06,13,.16c2.17,0,4.33.1,6.49.16s4.32.14,6.48.24C104.66,180.92,109,181.15,113.3,181.51Z"/></svg>